<svg width="24" height="24" xmlns="http://www.w3.org/2000/svg" viewBox="0 0 24 24" fill="white">
  <path d="M12 2C6.477 2 2 6.477 2 12c0 4.418 2.865 8.167 6.839 9.489.5.09.682-.217.682-.483 0-.237-.008-.868-.013-1.703-2.782.605-3.369-1.342-3.369-1.342-.454-1.157-1.11-1.466-1.11-1.466-.908-.62.069-.608.069-.608 1.003.07 1.531 1.032 1.531 1.032.892 1.528 2.341 1.087 2.91.832.092-.647.35-1.087.636-1.338-2.22-.252-4.555-1.11-4.555-4.943 0-1.09.39-1.98 1.029-2.676-.103-.253-.446-1.268.098-2.644 0 0 .84-.269 2.75 1.026A9.563 9.563 0 0112 6.844c.85.004 1.705.114 2.504.335 1.909-1.295 2.747-1.026 2.747-1.026.546 1.376.202 2.391.1 2.644.64.696 1.028 1.585 1.028 2.676 0 3.842-2.339 4.687-4.566 4.934.36.31.68.924.68 1.862 0 1.344-.012 2.426-.012 2.756 0 .268.18.577.688.479C19.137 20.164 22 16.418 22 12c0-5.523-4.477-10-10-10z"/>
</svg>
