<svg width="24" height="24" xmlns="http://www.w3.org/2000/svg" viewBox="0 0 24 24" fill="white">
<path d="M22.23 0H1.77C.792 0 0 .774 0 1.728v20.543C0 23.227.792 24 1.77 24h20.46C23.208 24 24 23.227 24 22.271V1.728C24 .774 23.208 0 22.23 0zM7.12 20.452H3.57V8.994h3.55v11.458zM5.345 7.55c-1.14 0-1.88-.762-1.88-1.717 0-.968.755-1.717 1.907-1.717 1.14 0 1.88.749 1.88 1.717 0 .955-.742 1.717-1.907 1.717zm13.03 12.902h-3.55v-5.985c0-1.507-.539-2.536-1.892-2.536-1.033 0-1.648.69-1.917 1.357-.099.245-.123.588-.123.931v6.234h-3.55V8.994h3.55v1.554c.47-.726 1.29-1.757 3.143-1.757 2.29 0 4.005 1.494 4.005 4.704v7.957z"/>
</svg>
