<!-- twitter.svg -->
<svg width="24" height="24" xmlns="http://www.w3.org/2000/svg" viewBox="0 0 24 24" fill="white">
  <path d="M24 4.557a9.847 9.847 0 01-2.828.775A4.93 4.93 0 0023.337 3a9.864 9.864 0 01-3.127 1.195 4.922 4.922 0 00-8.384 4.485A13.979 13.979 0 011.675 3.15a4.922 4.922 0 001.523 6.573 4.908 4.908 0 01-2.228-.616v.062a4.92 4.92 0 003.946 4.827 4.928 4.928 0 01-2.224.084 4.924 4.924 0 004.6 3.417A9.876 9.876 0 010 19.54 13.944 13.944 0 007.548 21c9.142 0 14.307-7.721 14.307-14.42 0-.22-.005-.439-.014-.656A10.242 10.242 0 0024 4.557z"/>
</svg>
